<?xml version="1.0" encoding="UTF-8" standalone="no"?><!DOCTYPE svg PUBLIC "-//W3C//DTD SVG 1.1//EN" "http://www.w3.org/Graphics/SVG/1.1/DTD/svg11.dtd"><svg width="100%" height="100%" viewBox="0 0 128 128" version="1.1" xmlns="http://www.w3.org/2000/svg" xmlns:xlink="http://www.w3.org/1999/xlink" xml:space="preserve" xmlns:serif="http://www.serif.com/" style="fill-rule:evenodd;clip-rule:evenodd;stroke-linejoin:round;stroke-miterlimit:2;"><rect id="Align-Center" serif:id="Align Center" x="0" y="0" width="127.962" height="128" style="fill:none;"/><clipPath id="_clip1"><rect x="0" y="0" width="127.962" height="128"/></clipPath><g clip-path="url(#_clip1)"><path d="M111.998,104c0,-4.415 -3.584,-8 -8,-8l-80.034,-0c-4.415,-0 -8,3.585 -8,8l-0,8c-0,4.415 3.585,8 8,8l80.034,-0c4.416,-0 8,-3.585 8,-8l0,-8Z"/><path d="M111.998,104c0,-4.415 -3.584,-8 -8,-8l-80.034,-0c-4.415,-0 -8,3.585 -8,8l-0,8c-0,4.415 3.585,8 8,8l80.034,-0c4.416,-0 8,-3.585 8,-8l0,-8Zm-8,-0c0,0 0,8 0,8c0,-4.415 -4.415,-0 0,-0l-80.034,-0c-0,-0 -0,-8 -0,-8c-0,4.415 4.415,-0 -0,-0l80.034,-0Z"/><path d="M127.962,16c0,-4.415 -3.584,-8 -8,-8l-111.962,-0c-4.415,-0 -8,3.585 -8,8l0,8c0,4.415 3.585,8 8,8l111.962,-0c4.416,-0 8,-3.585 8,-8l0,-8Z"/><path d="M127.962,16c0,-4.415 -3.584,-8 -8,-8l-111.962,0c-4.415,0 -8,3.585 -8,8l0,8c0,4.415 3.585,8 8,8l111.962,0c4.416,0 8,-3.585 8,-8l0,-8Zm-119.962,-0c0,-0 111.962,-0 111.962,-0c0,0 0,8 0,8c0,0 -111.962,0 -111.962,0l-0,-8Z"/><path d="M95.972,60.011c-0,-4.416 -3.585,-8 -8,-8l-47.981,-0c-4.416,-0 -8,3.584 -8,8l-0,8c-0,4.415 3.584,8 8,8l47.981,-0c4.415,-0 8,-3.585 8,-8l-0,-8Z"/><path d="M95.972,60.011c-0,-4.416 -3.585,-8 -8,-8l-47.981,-0c-4.416,-0 -8,3.584 -8,8l-0,8c-0,4.415 3.584,8 8,8l47.981,-0c4.415,-0 8,-3.585 8,-8l-0,-8Zm-8,-0c-0,-0 -0,8 -0,8c-0,-0 -47.981,-0 -47.981,-0c-0,-0 -0,-8 -0,-8c-0,-0 47.981,-0 47.981,-0Z"/></g></svg>