<?xml version="1.0" encoding="UTF-8" standalone="no"?><!DOCTYPE svg PUBLIC "-//W3C//DTD SVG 1.1//EN" "http://www.w3.org/Graphics/SVG/1.1/DTD/svg11.dtd"><svg width="100%" height="100%" viewBox="0 0 128 128" version="1.1" xmlns="http://www.w3.org/2000/svg" xmlns:xlink="http://www.w3.org/1999/xlink" xml:space="preserve" xmlns:serif="http://www.serif.com/" style="fill-rule:evenodd;clip-rule:evenodd;stroke-linejoin:round;stroke-miterlimit:2;"><rect id="Bold" x="-0" y="0" width="127.962" height="128" style="fill:none;"/><clipPath id="_clip1"><rect x="-0" y="0" width="127.962" height="128"/></clipPath><g clip-path="url(#_clip1)"><path d="M67.706,128l-42.795,0c-4.4,-0 -7.967,-3.567 -7.967,-7.967c0,-22.916 0,-88.828 0,-111.821c0,-2.13 0.846,-4.172 2.352,-5.678c1.506,-1.505 3.548,-2.351 5.677,-2.351c8.47,-0 20.602,-0 20.602,-0l-0,0.026l16.031,-0.209c8.839,0 16.593,1.369 23.264,4.108c6.67,2.739 11.892,6.86 15.666,12.363c3.774,5.502 5.661,12.429 5.661,20.779c-0,6.402 -2.398,12.33 -7.194,17.784c-1.768,2.01 -3.79,3.874 -6.066,5.592c3.975,2.086 7.366,4.611 10.174,7.574c5.271,5.563 7.907,13.092 7.907,22.587c0,7.961 -1.826,14.716 -5.478,20.267c-3.652,5.551 -8.722,9.763 -15.211,12.636c-6.489,2.873 -14.03,4.31 -22.623,4.31Zm-22.131,-25.966l-0,-28.008l17.931,-0c5.307,-0.122 9.494,1.095 12.562,3.652c3.068,2.556 4.602,6.001 4.602,10.333c0,4.189 -1.448,7.573 -4.345,10.153c-2.897,2.58 -6.841,3.87 -11.832,3.87l-18.918,0Zm-0,-51.637l-0,-27.207l14.134,-0c4.991,-0.122 8.977,1.034 11.96,3.469c2.982,2.435 4.473,5.818 4.473,10.151c0,4.286 -1.406,7.621 -4.218,10.007c-2.812,2.387 -6.556,3.58 -11.231,3.58l-15.118,-0Z"/></g></svg>