<?xml version="1.0" encoding="UTF-8" standalone="no"?><!DOCTYPE svg PUBLIC "-//W3C//DTD SVG 1.1//EN" "http://www.w3.org/Graphics/SVG/1.1/DTD/svg11.dtd"><svg width="100%" height="100%" viewBox="0 0 128 128" version="1.1" xmlns="http://www.w3.org/2000/svg" xmlns:xlink="http://www.w3.org/1999/xlink" xml:space="preserve" xmlns:serif="http://www.serif.com/" style="fill-rule:evenodd;clip-rule:evenodd;stroke-linejoin:round;stroke-miterlimit:2;"><rect id="X" x="0" y="0" width="127.962" height="128" style="fill:none;"/><path d="M63.981,47.029l-31.099,-31.099c-3.122,-3.122 -8.192,-3.122 -11.314,0l-5.657,5.657c-3.122,3.122 -3.122,8.192 0,11.314l31.1,31.099l-31.1,31.099c-3.122,3.122 -3.122,8.192 0,11.314l5.657,5.657c3.122,3.122 8.192,3.122 11.314,-0l31.099,-31.099l31.1,31.099c3.122,3.122 8.191,3.122 11.313,-0l5.657,-5.657c3.122,-3.122 3.122,-8.192 0,-11.314l-31.099,-31.099l31.099,-31.099c3.122,-3.122 3.122,-8.192 0,-11.314l-5.657,-5.657c-3.122,-3.122 -8.191,-3.122 -11.313,0l-31.1,31.099Z"/><path d="M63.981,47.029l-31.099,-31.099c-3.122,-3.122 -8.192,-3.122 -11.314,0l-5.657,5.657c-3.122,3.122 -3.122,8.192 0,11.314l31.1,31.099l-31.1,31.099c-3.122,3.122 -3.122,8.192 0,11.314l5.657,5.657c3.122,3.122 8.192,3.122 11.314,-0l31.099,-31.099l31.1,31.099c3.122,3.122 8.191,3.122 11.313,-0l5.657,-5.657c3.122,-3.122 3.122,-8.192 0,-11.314l-31.099,-31.099l31.099,-31.099c3.122,-3.122 3.122,-8.192 0,-11.314l-5.657,-5.657c-3.122,-3.122 -8.191,-3.122 -11.313,0l-31.1,31.099Zm-36.756,-25.442c-0,-0 31.099,31.099 31.099,31.099c3.125,3.124 8.19,3.124 11.314,0l31.099,-31.099c0,-0 5.657,5.657 5.657,5.657c0,-0 -31.099,31.099 -31.099,31.099c-3.124,3.124 -3.124,8.19 -0,11.314l31.099,31.099c0,0 -5.657,5.657 -5.657,5.657c0,0 -31.099,-31.099 -31.099,-31.099c-3.124,-3.124 -8.189,-3.124 -11.314,-0l-31.099,31.099c-0,0 -5.657,-5.657 -5.657,-5.657c0,0 31.099,-31.099 31.099,-31.099c3.125,-3.124 3.125,-8.19 0,-11.314l-31.099,-31.099l5.657,-5.657Z"/></svg>