<?xml version="1.0" encoding="UTF-8" standalone="no"?><!DOCTYPE svg PUBLIC "-//W3C//DTD SVG 1.1//EN" "http://www.w3.org/Graphics/SVG/1.1/DTD/svg11.dtd"><svg width="100%" height="100%" viewBox="0 0 128 128" version="1.1" xmlns="http://www.w3.org/2000/svg" xmlns:xlink="http://www.w3.org/1999/xlink" xml:space="preserve" xmlns:serif="http://www.serif.com/" style="fill-rule:evenodd;clip-rule:evenodd;stroke-linejoin:round;stroke-miterlimit:2;"><rect id="Error" x="0" y="0" width="127.962" height="128" style="fill:none;"/><clipPath id="_clip1"><rect x="0" y="0" width="127.962" height="128"/></clipPath><g clip-path="url(#_clip1)"><path d="M63.981,0c35.312,0 63.981,28.677 63.981,64c0,35.323 -28.669,64 -63.981,64c-35.312,0 -63.981,-28.677 -63.981,-64c0,-35.323 28.669,-64 63.981,-64Zm12,94c0,-3.311 -2.688,-6 -6,-6l-12,0c-3.311,0 -6,2.689 -6,6l0,12c0,3.311 2.689,6 6,6l12,0c3.312,0 6,-2.689 6,-6l0,-12Zm0,-72c0,-3.311 -2.688,-6 -6,-6l-12,0c-3.311,0 -6,2.689 -6,6l0,44c0,3.311 2.689,6 6,6l12,0c3.312,0 6,-2.689 6,-6l0,-44Z"/></g></svg>