<?xml version="1.0" encoding="UTF-8" standalone="no"?><!DOCTYPE svg PUBLIC "-//W3C//DTD SVG 1.1//EN" "http://www.w3.org/Graphics/SVG/1.1/DTD/svg11.dtd"><svg width="100%" height="100%" viewBox="0 0 128 128" version="1.1" xmlns="http://www.w3.org/2000/svg" xmlns:xlink="http://www.w3.org/1999/xlink" xml:space="preserve" xmlns:serif="http://www.serif.com/" style="fill-rule:evenodd;clip-rule:evenodd;stroke-linejoin:round;stroke-miterlimit:2;"><rect id="Info" x="0" y="0" width="127.962" height="128" style="fill:none;"/><clipPath id="_clip1"><rect x="0" y="0" width="127.962" height="128"/></clipPath><g clip-path="url(#_clip1)"><path d="M64.395,0.001c35.122,0.223 63.567,28.814 63.567,63.999c0,27.456 -17.321,50.898 -41.625,59.978l-0.366,0.136c-6.733,2.468 -13.998,3.836 -21.576,3.885l-0.414,0.001c-35.312,-0 -63.981,-28.677 -63.981,-64c0,-35.185 28.446,-63.776 63.568,-63.999l0.413,-0.001l0.414,0.001Zm5.586,55.999l-12,-0c-1.709,-0 -3.251,0.716 -4.345,1.864c-1.025,1.076 -1.655,2.533 -1.655,4.136l0,44c0,3.311 2.689,6 6,6l12,-0l0.155,-0.002c3.24,-0.082 5.845,-2.738 5.845,-5.998l0,-44c0,-3.26 -2.605,-5.916 -5.845,-5.998l-0.155,-0.002Zm0.155,-16.002c3.24,-0.082 5.845,-2.738 5.845,-5.998l0,-12c0,-3.311 -2.688,-6 -6,-6l-12,-0c-3.311,-0 -6,2.689 -6,6l0,12c0,3.311 2.689,6 6,6l12,-0l0.155,-0.002Z"/></g></svg>