<?xml version="1.0" encoding="UTF-8" standalone="no"?><!DOCTYPE svg PUBLIC "-//W3C//DTD SVG 1.1//EN" "http://www.w3.org/Graphics/SVG/1.1/DTD/svg11.dtd"><svg width="100%" height="100%" viewBox="0 0 128 128" version="1.1" xmlns="http://www.w3.org/2000/svg" xmlns:xlink="http://www.w3.org/1999/xlink" xml:space="preserve" xmlns:serif="http://www.serif.com/" style="fill-rule:evenodd;clip-rule:evenodd;stroke-linejoin:round;stroke-miterlimit:2;"><rect id="Italics" x="-0" y="0" width="127.962" height="128" style="fill:none;"/><clipPath id="_clip1"><rect x="-0" y="0" width="127.962" height="128"/></clipPath><g clip-path="url(#_clip1)"><path d="M71.877,0l-23.877,0c-4.415,-0 -8,3.585 -8,8c-0,4.415 3.585,8 8,8l14.776,0l-13.714,96l-17.062,0c-4.415,-0 -8,3.585 -8,8c-0,4.415 3.585,8 8,8l23.892,0c0.077,0.001 0.154,0.001 0.231,0l23.877,0c4.415,-0 8,-3.585 8,-8c-0,-4.415 -3.585,-8 -8,-8l-14.776,0l13.714,-96l17.062,0c4.415,-0 8,-3.585 8,-8c-0,-4.415 -3.585,-8 -8,-8l-23.892,0c-0.077,-0.001 -0.154,-0.001 -0.231,0Z"/></g></svg>