<?xml version="1.0" encoding="UTF-8" standalone="no"?><!DOCTYPE svg PUBLIC "-//W3C//DTD SVG 1.1//EN" "http://www.w3.org/Graphics/SVG/1.1/DTD/svg11.dtd"><svg width="100%" height="100%" viewBox="0 0 128 128" version="1.1" xmlns="http://www.w3.org/2000/svg" xmlns:xlink="http://www.w3.org/1999/xlink" xml:space="preserve" xmlns:serif="http://www.serif.com/" style="fill-rule:evenodd;clip-rule:evenodd;stroke-linejoin:round;stroke-miterlimit:2;"><rect id="Manual" x="-0" y="0" width="127.962" height="128" style="fill:none;"/><clipPath id="_clip1"><rect x="-0" y="0" width="127.962" height="128"/></clipPath><g clip-path="url(#_clip1)"><path d="M10,14.588l-0,-8.588c0,-3.314 2.686,-6 6,-6c0,0 25.285,0.138 40.473,8.369c3.062,1.66 5.737,3.627 7.881,5.916c0.478,-0.512 0.992,-1.026 1.545,-1.539c6.604,-6.13 19.682,-12.746 46.101,-12.746c3.314,0 6,2.686 6,6l-0,8.127c2.758,1.95 5.534,4.319 8.305,7.174c1.087,1.12 1.695,2.619 1.695,4.179l-0,96.52c0,2.438 -1.475,4.633 -3.732,5.555c-2.257,0.921 -4.847,0.386 -6.554,-1.356c0,0 -12.18,-12.581 -27.992,-11.333c-6.739,0.531 -14.056,3.717 -21.43,11.313c-1.131,1.165 -2.686,1.822 -4.309,1.821l-0.007,-0c-1.772,-0.001 -3.364,-0.769 -4.462,-1.991c-1.479,-1.472 -12.98,-12.388 -27.708,-11.22c-6.744,0.536 -14.079,3.745 -21.501,11.39c-1.702,1.753 -4.296,2.299 -6.56,1.381c-2.264,-0.918 -3.745,-3.117 -3.745,-5.56l-0,-96.52c0,-1.528 0.583,-2.999 1.631,-4.112c-0,0 3.098,-3.262 8.369,-6.78Zm47.981,13.901l0,74.737c-6.77,-4.545 -17.812,-8.667 -35.981,-9.414c-0,0 -0,-81.57 -0,-81.57l-0,0c5.887,0.399 15.12,1.452 23.116,4.238c3.772,1.314 7.273,2.99 9.788,5.327c1.841,1.71 3.074,3.809 3.074,6.48c-0,0.068 0.001,0.135 0.003,0.202Zm12,74.443l0,-74.68c0.084,-0.798 2.032,-14.662 36.019,-16.127c-0,-0 -0,81.828 -0,81.828c-8.426,0.569 -23.919,2.377 -34.508,8.116c-0.515,0.279 -1.019,0.566 -1.511,0.863Z"/></g></svg>