<?xml version="1.0" encoding="UTF-8" standalone="no"?><!DOCTYPE svg PUBLIC "-//W3C//DTD SVG 1.1//EN" "http://www.w3.org/Graphics/SVG/1.1/DTD/svg11.dtd"><svg width="100%" height="100%" viewBox="0 0 128 128" version="1.1" xmlns="http://www.w3.org/2000/svg" xmlns:xlink="http://www.w3.org/1999/xlink" xml:space="preserve" xmlns:serif="http://www.serif.com/" style="fill-rule:evenodd;clip-rule:evenodd;stroke-linejoin:round;stroke-miterlimit:2;"><rect id="Underline" x="-0" y="0" width="127.962" height="128" style="fill:none;"/><clipPath id="_clip1"><rect x="-0" y="0" width="127.962" height="128"/></clipPath><g clip-path="url(#_clip1)"><path d="M84.054,9.188c-0,-2.437 0.968,-4.774 2.691,-6.497c1.723,-1.723 4.06,-2.691 6.497,-2.691c-0,-0 -0,-0 -0,-0c2.436,0 4.773,0.968 6.496,2.691c1.723,1.723 2.692,4.06 2.692,6.497c-0,16.609 -0,49.925 -0,49.925l-0.002,0.349c-0.048,7.315 -1.626,13.696 -4.733,19.144c-3.157,5.534 -7.637,9.816 -13.44,12.847c-5.803,3.031 -12.66,4.547 -20.57,4.547c-7.73,-0 -14.465,-1.516 -20.205,-4.547c-5.74,-3.031 -10.166,-7.313 -13.279,-12.847c-3.112,-5.534 -4.668,-12.032 -4.668,-19.493l-0,-49.925c-0,-2.437 0.968,-4.774 2.691,-6.497c1.723,-1.723 4.06,-2.691 6.497,-2.691c-0,-0 -0,-0 -0,-0c2.437,0 4.774,0.968 6.497,2.691c1.723,1.723 2.691,4.06 2.691,6.497c-0,16.609 -0,49.925 -0,49.925l0,0.188c0.026,3.921 0.86,7.356 2.502,10.306c1.669,2.996 4.005,5.31 7.01,6.942c3.004,1.632 6.515,2.448 10.533,2.448c4.054,-0 7.597,-0.816 10.629,-2.448c3.032,-1.632 5.368,-3.946 7.009,-6.942c1.641,-2.996 2.462,-6.494 2.462,-10.494l-0,-49.925Z" style="fill-rule:nonzero;"/><path d="M23.986,128l79.99,0c4.415,-0 8,-3.585 8,-8c0,-4.415 -3.585,-8 -8,-8l-79.99,0c-4.415,-0 -8,3.585 -8,8c0,4.415 3.585,8 8,8Z"/></g></svg>