<?xml version="1.0" encoding="UTF-8" standalone="no"?>
<!DOCTYPE svg PUBLIC "-//W3C//DTD SVG 1.1//EN" "http://www.w3.org/Graphics/SVG/1.1/DTD/svg11.dtd">
<svg width="100%" height="100%" viewBox="0 0 128 128" version="1.1" xmlns="http://www.w3.org/2000/svg" xmlns:xlink="http://www.w3.org/1999/xlink" xml:space="preserve" xmlns:serif="http://www.serif.com/" style="fill-rule:evenodd;clip-rule:evenodd;stroke-linejoin:round;stroke-miterlimit:2;">
    <path d="M68.001,0.001L68,0L31.976,0C25.353,0 19.976,5.377 19.976,12L19.976,116C19.976,122.623 25.353,128 31.976,128L96.024,128C102.647,128 108.024,122.623 108.024,116L108.024,39.999L108.023,39.998C108.023,38.975 107.632,37.951 106.852,37.171L70.827,1.171C70.047,0.391 69.024,0.001 68.001,0.001ZM64,8L64,32C64,38.623 69.377,44 76,44L100.024,44L100.024,116C100.024,118.208 98.232,120 96.024,120L31.976,120C29.768,120 27.976,118.208 27.976,116C27.976,116 27.976,12 27.976,12C27.976,9.792 29.768,8 31.976,8L64,8Z"/>
    <g transform="matrix(8.43903e-17,1.3782,-1.38676,8.49143e-17,168.886,-14.7353)">
        <path d="M58.531,63.879C60.134,61.403 62.894,59.906 65.857,59.908C68.819,59.909 71.578,61.407 73.179,63.885C76.337,68.771 80.053,74.521 83.343,79.611C85.064,82.274 85.185,85.658 83.658,88.436C82.131,91.213 79.201,92.941 76.017,92.941L55.671,92.941C52.485,92.941 49.554,91.212 48.028,88.433C46.502,85.653 46.625,82.268 48.349,79.605C51.645,74.515 55.368,68.764 58.531,63.879ZM63.412,67C63.947,66.175 64.867,65.676 65.854,65.676C66.842,65.677 67.761,66.176 68.295,67.002C68.295,67.002 78.459,82.729 78.459,82.729C79.032,83.616 79.073,84.744 78.564,85.67C78.055,86.596 77.078,87.172 76.017,87.172L55.671,87.172C54.609,87.172 53.632,86.596 53.123,85.669C52.615,84.743 52.656,83.614 53.23,82.727L63.412,67Z"/>
    </g>
</svg>
